<svg width="682" height="223" viewBox="0 0 682 223" fill="none" xmlns="http://www.w3.org/2000/svg">
<path d="M64.0642 129.438C56.8789 125.983 50.5871 121.12 45.1861 114.843L45.1806 114.842L43.7671 113.199C38.9661 107.619 35.5821 101.342 33.6165 94.3641C31.6475 87.3874 31.0623 80.384 31.8581 73.3505C32.6549 66.3181 34.7836 59.6151 38.2492 53.2377C41.7146 46.8624 46.5339 41.4466 52.7069 36.9923C56.7145 34.1006 61.4106 31.6021 66.7922 29.4934C72.1771 27.386 77.624 26.1201 83.1369 25.6929C88.6521 25.266 94.035 25.8617 99.2881 27.4803C104.544 29.0971 109.055 32.0982 112.827 36.4817C114.885 38.8734 116.463 41.5705 117.555 44.5755C118.648 47.5817 119.176 50.5929 119.137 53.6058C119.1 56.623 118.387 59.5187 117.002 62.2943C115.615 65.0696 113.515 67.473 110.699 69.5051C108.318 71.2235 105.735 72.4042 102.947 73.0415C100.16 73.6799 97.4096 73.8495 94.6935 73.5489C91.9786 73.2474 89.3507 72.4399 86.8125 71.1228C84.2743 69.8057 82.1053 68.1012 80.3053 66.0094C78.3343 63.7188 76.8403 61.1641 75.8187 58.3466C74.8027 55.5309 74.2998 52.7022 74.3142 49.8654C74.332 47.0279 74.9178 44.3447 76.0764 41.8143C77.234 39.2827 79.0583 37.1191 81.5485 35.3222C82.6325 34.54 83.9512 33.8306 85.5083 33.1912C82.9644 33.0884 80.6913 33.3545 78.6935 33.9898C76.6933 34.6269 74.8815 35.5302 73.258 36.7016C68.9271 39.8267 66.2605 44.1734 65.2583 49.7414C64.7435 53.0176 64.8811 56.3909 65.6703 59.8582C66.4596 63.3255 67.6266 66.7213 69.1711 70.0476C70.7159 73.372 72.5042 76.5206 74.5358 79.4955C76.5698 82.4687 78.5277 85.0498 80.4147 87.2428C83.6707 91.0267 87.6063 94.6852 92.2262 98.2168C96.844 101.746 101.849 104.553 107.241 106.637C112.632 108.72 118.091 109.707 123.612 109.598C129.134 109.488 134.387 107.636 139.37 104.04C142.944 101.461 145.602 98.3307 147.35 94.6494C149.095 90.9658 149.139 87.1409 147.479 83.1719C145.314 84.7344 143.138 85.217 140.953 84.6135C138.765 84.0117 136.943 82.8644 135.486 81.1711C133.942 79.3768 133.097 77.322 132.949 75.0086C132.798 72.6929 133.808 70.7541 135.975 69.1906C139.114 66.9252 142.35 66.0444 145.679 66.5469C149.01 67.0506 151.747 68.5477 153.89 71.0382C156.863 75.5142 158.304 80.044 158.213 84.63C158.123 89.218 156.931 93.7497 154.642 98.2284C152.351 102.706 149.195 107.044 145.17 111.239C141.145 115.438 136.641 119.332 131.66 122.926C124.946 127.771 117.688 131.272 109.89 133.429C102.091 135.584 94.3003 136.321 86.5187 135.641C78.7338 134.959 71.2508 132.892 64.0642 129.438Z" fill="white" fill-opacity="0.1"/>
<path fill-rule="evenodd" clip-rule="evenodd" d="M160.568 31.3125C191.236 66.9524 184.546 118.61 145.627 146.694C106.707 174.777 50.2952 168.651 19.6275 133.012C-11.0402 97.3716 -4.35069 45.7136 34.5689 17.6302C73.4885 -10.4533 129.9 -4.32747 160.568 31.3125ZM156.598 34.1772C185.538 67.8093 179.225 116.557 142.498 143.058C105.771 169.559 52.5376 163.779 23.5977 130.147C-5.34229 96.5147 0.970318 47.767 37.6973 21.2658C74.4242 -5.23549 127.658 0.545177 156.598 34.1772Z" fill="white" fill-opacity="0.1"/>
<path d="M353.536 172.218C350.763 166.531 349.376 160.342 349.376 153.645L349.373 153.641V151.889C349.373 145.936 350.702 140.196 353.36 134.67C356.016 129.143 359.597 124.255 364.105 120.003C368.612 115.753 373.81 112.351 379.704 109.8C385.596 107.249 391.835 105.973 398.421 105.973C402.697 105.973 407.203 106.559 411.94 107.727C416.678 108.898 420.981 110.652 424.852 112.989C428.724 115.327 431.929 118.276 434.47 121.837C437.014 125.397 438.284 129.515 438.284 134.192C438.284 136.744 437.795 139.269 436.811 141.765C435.828 144.263 434.47 146.496 432.738 148.461C431.005 150.429 428.896 151.997 426.412 153.166C423.927 154.334 421.183 154.919 418.179 154.919C415.638 154.919 413.269 154.469 411.073 153.564C408.877 152.661 406.97 151.466 405.353 149.978C403.737 148.49 402.464 146.711 401.539 144.638C400.615 142.566 400.152 140.413 400.152 138.182C400.152 135.738 400.616 133.346 401.539 131.007C402.465 128.671 403.737 126.57 405.353 124.709C406.972 122.85 408.877 121.362 411.073 120.247C413.269 119.13 415.695 118.573 418.352 118.573C419.508 118.573 420.778 118.732 422.165 119.051C420.549 117.775 418.902 116.87 417.227 116.34C415.55 115.809 413.846 115.543 412.114 115.543C407.493 115.543 403.276 117.138 399.462 120.327C397.268 122.239 395.448 124.524 394.003 127.182C392.559 129.839 391.404 132.628 390.536 135.551C389.67 138.473 389.064 141.395 388.716 144.318C388.371 147.241 388.198 149.87 388.198 152.21C388.198 156.247 388.716 160.525 389.757 165.044C390.797 169.56 392.502 173.785 394.871 177.718C397.24 181.65 400.274 184.891 403.97 187.442C407.667 189.992 412.173 191.268 417.49 191.268C421.303 191.268 424.826 190.47 428.061 188.877C431.296 187.281 433.492 184.785 434.648 181.384C432.337 181.384 430.632 180.668 429.535 179.233C428.436 177.797 427.887 176.177 427.887 174.371C427.887 172.456 428.494 170.702 429.707 169.109C430.919 167.513 432.682 166.716 434.994 166.716C438.344 166.716 440.973 167.674 442.879 169.586C444.786 171.499 445.74 173.785 445.74 176.442C445.162 180.8 443.544 184.466 440.887 187.442C438.229 190.419 434.878 192.836 430.834 194.696C426.79 196.556 422.256 197.912 417.23 198.762C412.203 199.614 407.033 200.038 401.718 200.038C394.555 200.038 387.794 198.895 381.44 196.611C375.085 194.325 369.54 191.11 364.803 186.966C360.065 182.82 356.31 177.905 353.536 172.218Z" fill="white" fill-opacity="0.1"/>
<path fill-rule="evenodd" clip-rule="evenodd" d="M472.636 153.465C472.636 191.49 438.974 222.316 397.449 222.316C355.925 222.316 322.262 191.49 322.262 153.465C322.262 115.439 355.925 84.6136 397.449 84.6136C438.974 84.6136 472.636 115.439 472.636 153.465ZM468.4 153.465C468.4 189.348 436.634 218.437 397.449 218.437C358.264 218.437 326.498 189.348 326.498 153.465C326.498 117.582 358.264 88.4926 397.449 88.4926C436.634 88.4926 468.4 117.582 468.4 153.465Z" fill="white" fill-opacity="0.1"/>
<path d="M617.65 47.9969C613.89 50.3304 610.898 53.1403 608.671 56.4275C606.444 59.7154 604.993 63.196 604.315 66.8718C603.639 70.5461 603.766 74.2776 604.697 78.0662C605.628 81.8543 607.343 85.4358 609.839 88.8087C611.691 91.3114 613.73 93.5979 615.961 95.6683C618.189 97.7389 620.531 99.4011 622.984 100.657C625.438 101.913 627.962 102.649 630.56 102.863C633.157 103.077 635.779 102.562 638.428 101.315C639.92 100.389 640.871 99.1436 641.281 97.5792C641.69 96.0151 641.312 94.4437 640.144 92.8665C639.339 91.7779 638.277 91.2254 636.959 91.2106C635.642 91.1948 634.445 91.5199 633.37 92.187C632.356 92.8165 631.637 93.6396 631.214 94.6573C630.79 95.6737 630.983 96.7262 631.788 97.8141C629.476 98.4553 627.309 98.2913 625.285 97.324C623.263 96.3559 621.588 94.975 620.259 93.1794C618.406 90.6761 617.552 88.1097 617.696 85.4799C617.84 82.8507 618.604 80.2925 619.986 77.807C621.369 75.321 623.147 73.0464 625.321 70.9826C627.495 68.918 629.717 67.1835 631.984 65.7767C633.297 64.9614 634.834 64.1269 636.596 63.2708C638.358 62.416 640.21 61.6833 642.153 61.073C644.096 60.4628 646.065 60.0348 648.061 59.789C650.056 59.5432 651.974 59.6037 653.812 59.9708C656.931 60.6552 659.296 62.0852 660.906 64.2611C661.51 65.0767 661.954 65.9718 662.241 66.9466C662.527 67.9202 662.593 69.0108 662.439 70.2164C662.135 69.4523 661.782 68.7988 661.379 68.2542C660.453 67.0032 659.295 66.0551 657.903 65.4102C656.511 64.7649 655.012 64.3862 653.404 64.2718C651.796 64.159 650.173 64.2925 648.539 64.6704C646.903 65.0509 645.399 65.6658 644.027 66.5174C642.773 67.2951 641.726 68.2627 640.884 69.4203C640.043 70.5779 639.487 71.7972 639.215 73.0767C638.943 74.3569 638.936 75.6711 639.194 77.0198C639.451 78.3689 640.024 79.6412 640.91 80.8376C641.957 82.2524 643.241 83.3405 644.763 84.1036C646.285 84.8656 647.9 85.3126 649.609 85.443C651.316 85.574 653.043 85.4352 654.788 85.0278C656.533 84.6209 658.121 83.9714 659.554 83.0822C662.18 81.4525 664.05 79.4195 665.163 76.9812C666.277 74.5441 666.815 72.007 666.779 69.3689C666.743 66.7319 666.229 64.0949 665.235 61.456C664.24 58.8186 662.999 56.4926 661.509 54.4793C659.214 51.3781 656.323 48.8845 652.838 46.9989C649.352 45.113 645.631 43.8507 641.673 43.2093C637.715 42.5684 633.723 42.5851 629.693 43.2608C625.664 43.9348 621.978 45.3093 618.635 47.3836L617.651 47.9943L617.65 47.9969Z" fill="white" fill-opacity="0.1"/>
<path fill-rule="evenodd" clip-rule="evenodd" d="M595.842 94.5616C610.311 114.114 639.35 119.224 660.702 105.973C682.054 92.7232 687.634 66.1312 673.164 46.5785C658.695 27.0258 629.656 21.9166 608.304 35.1668C586.952 48.417 581.372 75.009 595.842 94.5616ZM598.02 93.21C611.674 111.661 639.077 116.483 659.226 103.979C679.375 91.4752 684.64 66.3813 670.986 47.9302C657.332 29.4791 629.929 24.6577 609.78 37.1614C589.63 49.6651 584.365 74.7589 598.02 93.21Z" fill="white" fill-opacity="0.1"/>
</svg>

