<svg width="63" height="63" viewBox="0 0 63 63" fill="none" xmlns="http://www.w3.org/2000/svg">
<path d="M13.5769 40.4209C12.3913 37.8689 11.7757 35.08 11.7308 32.052L11.7296 32.0504L11.7179 31.2579C11.6779 28.5663 12.1891 25.9618 13.2521 23.4445C14.314 20.9266 15.7634 18.6915 17.6002 16.7376C19.4371 14.7842 21.5653 13.2101 23.9871 12.0151C26.4083 10.8207 28.982 10.2002 31.7076 10.1542C33.4771 10.1243 35.3459 10.3578 37.3139 10.8528C39.2826 11.3489 41.0749 12.1119 42.6924 13.1416C44.3105 14.1719 45.657 15.4828 46.7324 17.075C47.809 18.6671 48.3621 20.5202 48.3935 22.635C48.4106 23.7888 48.2252 24.9338 47.835 26.0695C47.4448 27.2058 46.8979 28.225 46.1943 29.1254C45.4901 30.0275 44.6278 30.751 43.6078 31.2971C42.5872 31.8426 41.4558 32.1261 40.2124 32.147C39.1609 32.1648 38.1774 31.978 37.2626 31.5844C36.3478 31.1913 35.5508 30.6643 34.8714 30.0028C34.1925 29.3413 33.654 28.5456 33.2574 27.6149C32.8608 26.6843 32.655 25.7144 32.64 24.7052C32.6236 23.6002 32.7995 22.5158 33.1659 21.4514C33.5334 20.3887 34.0454 19.43 34.7018 18.5774C35.3593 17.7254 36.1378 17.0394 37.039 16.5197C37.9402 15.9995 38.9406 15.7304 40.0401 15.7118C40.5187 15.7038 41.0453 15.7669 41.6215 15.9013C40.944 15.3357 40.2564 14.9383 39.5597 14.71C38.862 14.4818 38.1549 14.3734 37.4381 14.3855C35.5258 14.4178 33.7913 15.1683 32.2346 16.6369C31.3392 17.5167 30.6014 18.563 30.0215 19.7745C29.4416 20.986 28.9822 22.2554 28.6429 23.5832C28.3041 24.9104 28.0728 26.2358 27.9485 27.5599C27.8253 28.884 27.7713 30.0739 27.787 31.1318C27.8141 32.9573 28.0573 34.8877 28.5182 36.9237C28.9792 38.9586 29.7128 40.8569 30.7196 42.6187C31.7264 44.3799 33.0037 45.8245 34.5504 46.9519C36.0977 48.0793 37.9711 48.6247 40.1712 48.5875C41.7494 48.5609 43.202 48.1755 44.5301 47.4325C45.8582 46.6884 46.7501 45.5442 47.2054 43.9983C46.2493 44.0144 45.5387 43.7027 45.0752 43.0614C44.6107 42.4202 44.3726 41.6914 44.3605 40.8745C44.3476 40.0089 44.5873 39.2116 45.0784 38.4827C45.5695 37.7527 46.2936 37.3802 47.2503 37.3641C48.6366 37.3407 49.7309 37.7551 50.5328 38.6063C51.3347 39.458 51.7449 40.4849 51.7627 41.6863C51.5526 43.661 50.9078 45.3299 49.8283 46.694C48.7482 48.0586 47.3777 49.1749 45.7166 50.0444C44.0556 50.9133 42.1882 51.5585 40.114 51.9776C38.0393 52.3979 35.9027 52.6258 33.7031 52.6629C30.7387 52.713 27.9332 52.2437 25.2882 51.2551C22.6432 50.266 20.3267 48.8511 18.3386 47.0106C16.35 45.1689 14.7631 42.9729 13.5769 40.4209Z" fill="#434C59"/>
<path fill-rule="evenodd" clip-rule="evenodd" d="M62.7391 31.1092C62.9944 48.3026 49.2705 62.4759 32.0861 62.766C14.9016 63.0562 0.76398 49.3534 0.50877 32.1599C0.253557 14.9665 13.9774 0.793231 31.1619 0.50308C48.3463 0.212929 62.4839 13.9157 62.7391 31.1092ZM60.9862 31.1388C61.227 47.3636 48.2763 60.7383 32.06 61.0121C15.8437 61.2859 2.50257 48.3551 2.26174 32.1303C2.0209 15.9055 14.9716 2.53075 31.1879 2.25695C47.4042 1.98315 60.7453 14.914 60.9862 31.1388Z" fill="#434C59"/>
</svg>
