<svg width="68" height="53" viewBox="0 0 68 53" fill="none" xmlns="http://www.w3.org/2000/svg">
  <g clip-path="url(#clip0_362_16806)">
    <path d="M55.124 10.4178L45.1512 0.480339C44.8376 0.17031 44.4129 -0.00245795 43.9711 2.64275e-05H17.377C14.6231 2.64275e-05 12.3906 2.22458 12.3906 4.96878V48.0313C12.3906 50.7755 14.6231 53 17.377 53H50.6196C53.3735 53 55.606 50.7755 55.606 48.0313V11.5938C55.6086 11.1535 55.4351 10.7305 55.124 10.4178ZM52.2817 48.0313C52.2817 48.946 51.5376 49.6875 50.6196 49.6875H17.377C16.459 49.6875 15.7149 48.946 15.7149 48.0313V4.96878C15.7149 4.05401 16.459 3.31253 17.377 3.31253H42.3089V9.93753C42.3089 11.767 43.7973 13.25 45.6332 13.25H52.2817V48.0313Z" fill="#1F2A3E" />
  </g>
  <defs>
    <clipPath id="clip0_362_16806">
      <rect width="68" height="53" fill="white" />
    </clipPath>
  </defs>
</svg>